<?xml version="1.0" encoding="UTF-8" standalone="no"?>
<svg
   class="hjs-icon__svg"
   viewBox="0 0 500 500"
   version="1.1"
   id="svg8"
   sodipodi:docname="logo-orange.svg"
   inkscape:export-filename="/Users/abumq/Projects/amrayn-assets/logo.png"
   inkscape:export-xdpi="98.300003"
   inkscape:export-ydpi="98.300003"
   inkscape:version="1.1.2 (b8e25be8, 2022-02-05)"
   xmlns:inkscape="http://www.inkscape.org/namespaces/inkscape"
   xmlns:sodipodi="http://sodipodi.sourceforge.net/DTD/sodipodi-0.dtd"
   xmlns="http://www.w3.org/2000/svg"
   xmlns:svg="http://www.w3.org/2000/svg">
  <defs
     id="defs12" />
  <sodipodi:namedview
     id="namedview10"
     pagecolor="#ffffff"
     bordercolor="#666666"
     borderopacity="1.0"
     inkscape:pageshadow="2"
     inkscape:pageopacity="0.0"
     inkscape:pagecheckerboard="0"
     showgrid="false"
     inkscape:zoom="1.746"
     inkscape:cx="241.98167"
     inkscape:cy="288.94616"
     inkscape:window-width="1704"
     inkscape:window-height="1081"
     inkscape:window-x="0"
     inkscape:window-y="25"
     inkscape:window-maximized="0"
     inkscape:current-layer="svg8" />
  <circle
     cx="250"
     cy="250"
     r="250"
     fill="#373e44"
     stroke="none"
     id="circle2" />
  <path
     fill="#47a0ee"
     d="m190.192 141.013 238.9 199.451c-63.413 9.845-208.911-125.242-261.516-164.487l22.616-34.964Zm-2.738-12.549 5.875 4.905-31.242 48.292-5.872-4.904 31.239-48.293ZM134.381 99.11l45.817 38.252-18.676 28.869-45.819-38.252 18.678-28.869Zm-2.624-12.251 5.876 4.906-27.132 41.931-5.874-4.903 27.13-41.934Z"
     id="path4"
     style="fill:#ff9300;fill-opacity:1" />
  <path
     fill="#0088ff"
     d="M182.948 351.058c-.557.15-6.31 5.486-12.76 12.311-5.158 5.413-10.077 10.715-11.366 12.605-1.709 2.446.557 3.19 2.511 1.559 1.95-1.595 7.6-6.71 17.883-8.862 11.507-2.411 16.32-4.708 20.642-16.391a1736.08 1736.08 0 0 0 4.567-12.494c2.475-6.898 2.65-14.387.138-16.873-2.508-2.444-12.061 5.008-21.23 16.724-.385.519-.804 1.001-1.186 1.521-9.169 11.752-13.041 17.76-8.753 13.347 3.696-3.744 7.358-7.49 7.811-7.935.871-.852 2.302-.407 2.964.41.836 1.074.696 2.67-.315 3.558-.278.261-.592.408-.906.52m-111.29 16.537c1.15-.297 7.776-1.557 9.972-1.595.418 0 .592.446.382.631-.872.742-3.137 1.778-3.451 1.965-5.753 3.338-6.065 6.155-5.961 7.527.382 3.78 5.404 6.935 23.742 5.749 7.566-.67 14.924-2.113 21.757-3.304 6.832-1.221 15.34-2.334 18.618-2.334 9.937 0 10.704 2.967 18.2 2.967.662 0 1.185-.149 1.185-.926 0-.779-.733-.928-1.15-.965-6.311 0-7.914-4.34-18.269-4.302-5.686-.038-7.461-.148-22.978 2.15-15.515 2.298-33.994 3.302-33.994-.073 0-1.927 12.829-5.562 12.829-11.122 0-2.968-3.519-7.194-22.242-3.638-1.639.337-3.799 1.485-3.662 4.006.108 2.336 1.849 4.191 5.022 3.264m327.595-265.447c-96.925 97.998-129.177 129.737-180.254 192.625-9.379 11.566-14.853 23.028-12.343 25.546 2.512 2.484 28.45.666 43.687-13.645 17.223-12.237 153.372-193.849 156.267-197.742 4.604-6.23-1.081-13.164-7.357-6.784"
     id="path6"
     style="fill:#c4692c;fill-opacity:1" />
</svg>
