<?xml version="1.0" encoding="UTF-8" standalone="no"?>
<svg
   class="hjs-icon__svg"
   viewBox="0 0 3500 500"
   version="1.1"
   id="svg36"
   sodipodi:docname="logo-full-orange-white.svg"
   inkscape:export-filename="/Users/abumq/Projects/amrayn-assets/logo-full-orange-white.png"
   inkscape:export-xdpi="98.300003"
   inkscape:export-ydpi="98.300003"
   inkscape:version="1.1.2 (b8e25be8, 2022-02-05)"
   xmlns:inkscape="http://www.inkscape.org/namespaces/inkscape"
   xmlns:sodipodi="http://sodipodi.sourceforge.net/DTD/sodipodi-0.dtd"
   xmlns="http://www.w3.org/2000/svg"
   xmlns:svg="http://www.w3.org/2000/svg">
  <defs
     id="defs40" />
  <sodipodi:namedview
     id="namedview38"
     pagecolor="#ffffff"
     bordercolor="#666666"
     borderopacity="1.0"
     inkscape:pageshadow="2"
     inkscape:pageopacity="0.0"
     inkscape:pagecheckerboard="0"
     showgrid="false"
     inkscape:zoom="0.30942857"
     inkscape:cx="2055.4017"
     inkscape:cy="231.0711"
     inkscape:window-width="1965"
     inkscape:window-height="1081"
     inkscape:window-x="0"
     inkscape:window-y="25"
     inkscape:window-maximized="0"
     inkscape:current-layer="svg36" />
  <circle
     cx="250"
     cy="250"
     r="250"
     fill="#373e44"
     stroke="none"
     id="circle22"
     style="fill:#f9f9f9" />
  <path
     fill="#47a0ee"
     d="m190.192 141.013 238.9 199.451c-63.413 9.845-208.911-125.242-261.516-164.487l22.616-34.964Zm-2.738-12.549 5.875 4.905-31.242 48.292-5.872-4.904 31.239-48.293ZM134.381 99.11l45.817 38.252-18.676 28.869-45.819-38.252 18.678-28.869Zm-2.624-12.251 5.876 4.906-27.132 41.931-5.874-4.903 27.13-41.934Z"
     id="path24"
     style="fill:#ff9300;fill-opacity:1"
     inkscape:export-filename="/Users/abumq/Projects/amrayn-assets/logo-full-orange.png"
     inkscape:export-xdpi="98.300003"
     inkscape:export-ydpi="98.300003" />
  <path
     fill="#0088ff"
     d="M182.948 351.058c-.557.15-6.31 5.486-12.76 12.311-5.158 5.413-10.077 10.715-11.366 12.605-1.709 2.446.557 3.19 2.511 1.559 1.95-1.595 7.6-6.71 17.883-8.862 11.507-2.411 16.32-4.708 20.642-16.391a1736.08 1736.08 0 0 0 4.567-12.494c2.475-6.898 2.65-14.387.138-16.873-2.508-2.444-12.061 5.008-21.23 16.724-.385.519-.804 1.001-1.186 1.521-9.169 11.752-13.041 17.76-8.753 13.347 3.696-3.744 7.358-7.49 7.811-7.935.871-.852 2.302-.407 2.964.41.836 1.074.696 2.67-.315 3.558-.278.261-.592.408-.906.52m-111.29 16.537c1.15-.297 7.776-1.557 9.972-1.595.418 0 .592.446.382.631-.872.742-3.137 1.778-3.451 1.965-5.753 3.338-6.065 6.155-5.961 7.527.382 3.78 5.404 6.935 23.742 5.749 7.566-.67 14.924-2.113 21.757-3.304 6.832-1.221 15.34-2.334 18.618-2.334 9.937 0 10.704 2.967 18.2 2.967.662 0 1.185-.149 1.185-.926 0-.779-.733-.928-1.15-.965-6.311 0-7.914-4.34-18.269-4.302-5.686-.038-7.461-.148-22.978 2.15-15.515 2.298-33.994 3.302-33.994-.073 0-1.927 12.829-5.562 12.829-11.122 0-2.968-3.519-7.194-22.242-3.638-1.639.337-3.799 1.485-3.662 4.006.108 2.336 1.849 4.191 5.022 3.264m327.595-265.447c-96.925 97.998-129.177 129.737-180.254 192.625-9.379 11.566-14.853 23.028-12.343 25.546 2.512 2.484 28.45.666 43.687-13.645 17.223-12.237 153.372-193.849 156.267-197.742 4.604-6.23-1.081-13.164-7.357-6.784"
     id="path26"
     style="fill:#c4692c;fill-opacity:1" />
  <path
     fill="#0088ff"
     d="M778.678 256.61q-1.5-8.5-3-18.5t-3-19q-1.5-9-3-15.5-1-6.5-1.5-8.5-8 3-18 7t-20 9q-10 4.5-19 9.5-9 4.5-15 8.5-11.5 7.5-17.5 15t-6 18q0 14.5 8.5 25.5t26.5 11q9.5 0 19.5-3.5 10.5-3.5 19-8 9-4.5 15.5-9t9-7q4-4 6-6.5 2.5-3 2-8zm-14.5-77.5q-3-15.5-7-27.5-4-12.5-10-20.5-6-8.5-14.5-12.5-8.5-4.5-21-4.5-11 0-20.5 4-9 4-16 9.5-6.5 5.5-10.5 11-3.5 5.5-4 8.5-.5 4-4.5 4-7 0-13-5t-6-12q0-4 1-6 11.5-6.5 28-14t34-14q18-6.5 35.5-10.5 17.5-4.5 31.5-4.5 21 0 32 6 11.5 6 17 17t6.5 26q1.5 14.5 2.5 31.5 1.5 25.5 4 49.5 2.5 23.5 7.5 42 5 18 12.5 29.5 8 11 19.5 11 5.5 0 12-2t12.5-4.5q6-3 10.5-5.5 5-3 6.5-4 4.5 0 5.5 4.5 0 2.5-1 4.5-1 1-7.5 5t-16 9.5q-9.5 5.5-21 12-11.5 6-23 11.5-11 5.5-20.5 9t-15 3.5q-6.5 0-11.5-5.5-4.5-5-8-13.5-3.5-9-6-20.5t-4.5-24q-9 7.5-23 18-14 10-30.5 19t-34 15.5q-17 6-33 6-13.5 0-23.5-4-10-4.5-17-11.5-6.5-7-10-16-3-9.5-3-19.5 0-16 9.5-26 10-10.5 30.5-21.5 9.5-5 26.5-13 17-8.5 34.5-17 18-8.5 33-16 15.5-8 22.5-12.5z"
     style="fill:#f9f9f9"
     id="path28" />
  <path
     fill="#0088ff"
     d="M1357.569 291.11q1.5 0 2 2 .5 1.5.5 4t-1 3.5q-1 .5-2 1.5-3.5 2-17 8.5-13 6.5-29.5 13.5-16 6.5-32 11.5-15.5 5.5-23.5 5.5-7 0-13.5-3-6-3-5-9.5 1-4 2-12 1.5-8 2.5-19.5 1-14.5 2-33.5 1.5-19 1.5-42 0-27-3.5-44.5-3.5-18-10-28.5t-16-14.5q-9.5-4.5-22-4.5-11.5 0-19.5 4-8 3.5-14 8-11 8.5-17.5 22-6 13-7.5 34.5l-1 11q0 5.5-.5 12 0 6.5-.5 14.5v19q0 29.5 4.5 41 5 11.5 16.5 11.5h5q1-.5 4-1 1 1 2 2.5 1.5 2.5-.5 5.5-2.5 3-12 8-9.5 4.5-21 8.5t-22.5 7q-11 3-16.5 3-7 0-13-2-5.5-1.5-5.5-4 0-3 2-7 1.5-2.5 3-12t2.5-24.5q1.5-15 2.5-34.5 1-20 1-43 0-12-1.5-26.5-1-14.5-6-27-5-13-15-21.5-9.5-9-26.5-9-10 0-18 3-8 2.5-13.5 6.5-11 8.5-19 21-7.5 12.5-10 35.5-1 10.5-2 22-1 11-1 25.5 0 19 1 31.5t3.5 20q2.5 7 6 10 3.5 2.5 9 2.5t7.5-1q2.5-1 3.5 3t-.5 5q-2 2-10.5 6.5-8.5 4-19.5 8.5t-22.5 8q-11.5 3.5-19.5 3.5-8.5 0-13.5-2-4.5-2-4.5-4.5 0-.5 1-3 1-3 1.5-5 2-15.5 3.5-28.5 2-13.5 2.5-29 1-15.5 1.5-35.5t.5-48.5q0-27.5-9-40.5-8.5-13-18-13-4 0-7 1l-5 1q-3 .5-3-3v-3.5q.5-.5 10-7t22.5-14q13-7.5 27-13.5 14-6.5 23-6.5 6 0 10 3.5 4.5 3.5 4.5 13 0 4.5-.5 10 0 5.5-.5 11.5 0 6-.5 12-.5 5.5-.5 9.5 7-6.5 17.5-17 11-10.5 24.5-20t29-16.5q16-7 33.5-7 23 0 37.5 13.5t15.5 47q8-7.5 19.5-18t25.5-20q14.5-9.5 30.5-16t32.5-6.5q58 0 58 61.5 0 10-1 23t-2.5 27.5q-1.5 14-2.5 28t-1 25.5q0 52 27.5 52 4.5 0 10-1l11-3q5.5-2 10-3.5 4.5-2 6.5-3.5zM1586.412 122.11q-5.5 4.5-13 11.5-7.5 6.5-16 13-8 6-16.5 10.5t-16.5 4.5q-7 0-12.5-3-5.5-3.5-10.5-7-4.5-4-9-7-4.5-3.5-9.5-3.5-13.5 0-23 11-9 11-15 28-5.5 17-8.5 37-2.5 20-2.5 38.5 0 15.5 1 25.5 1.5 9.5 4 15.5 2.5 5.5 6.5 7.5 4.5 2 10.5 2 6.5 0 14-2 1.5-.5 2 2 1 2.5 1 4 0 1-1.5 2.5-1.5 1-2 1-11 4.5-22.5 10-11.5 5-19 8.5-7 3-17 6.5-9.5 3.5-16.5 3.5-8 0-13.5-2.5-5-2.5-5-5t1-4.5q1.5-2 2.5-7.5 1-7.5 2-17.5 1.5-10.5 2.5-22.5 1.5-12 2-24.5 1-13 1-25.5 0-28-2-47.5-1.5-19.5-6-31.5t-12.5-17q-7.5-5.5-19.5-5.5h-4.5q-2 0-4 .5-3 0-3-3t3-4.5q5.5-3.5 17-10 11.5-7 23.5-13 12.5-6.5 24-11.5t17-5q6.5 0 11 4.5 4.5 4 6.5 10.5 2.5 6.5 3.5 15 1 8 1 16 0 6-.5 12.5v14q22.5-33 40.5-51 18-18.5 34-18.5 6 0 11.5 5 6 5 12.5 11.5 6.5 6 13.5 11t14.5 5q6.5 0 9.5-1.5l5-2.5q4 0 4 5.5zM1725.944 256.61q-1.5-8.5-3-18.5t-3-19q-1.5-9-3-15.5-1-6.5-1.5-8.5-8 3-18 7t-20 9q-10 4.5-19 9.5-9 4.5-15 8.5-11.5 7.5-17.5 15t-6 18q0 14.5 8.5 25.5t26.5 11q9.5 0 19.5-3.5 10.5-3.5 19-8 9-4.5 15.5-9t9-7q4-4 6-6.5 2.5-3 2-8zm-14.5-77.5q-3-15.5-7-27.5-4-12.5-10-20.5-6-8.5-14.5-12.5-8.5-4.5-21-4.5-11 0-20.5 4-9 4-16 9.5-6.5 5.5-10.5 11-3.5 5.5-4 8.5-.5 4-4.5 4-7 0-13-5t-6-12q0-4 1-6 11.5-6.5 28-14t34-14q18-6.5 35.5-10.5 17.5-4.5 31.5-4.5 21 0 32 6 11.5 6 17 17t6.5 26q1.5 14.5 2.5 31.5 1.5 25.5 4 49.5 2.5 23.5 7.5 42 5 18 12.5 29.5 8 11 19.5 11 5.5 0 12-2t12.5-4.5q6-3 10.5-5.5 5-3 6.5-4 4.5 0 5.5 4.5 0 2.5-1 4.5-1 1-7.5 5t-16 9.5q-9.5 5.5-21 12-11.5 6-23 11.5-11 5.5-20.5 9t-15 3.5q-6.5 0-11.5-5.5-4.5-5-8-13.5-3.5-9-6-20.5t-4.5-24q-9 7.5-23 18-14 10-30.5 19t-34 15.5q-17 6-33 6-13.5 0-23.5-4-10-4.5-17-11.5-6.5-7-10-16-3-9.5-3-19.5 0-16 9.5-26 10-10.5 30.5-21.5 9.5-5 26.5-13 17-8.5 34.5-17 18-8.5 33-16 15.5-8 22.5-12.5z"
     style="fill:#f9f9f9"
     id="path30" />
  <path
     fill="#47a0ee"
     d="M1823.139 483.11q4.5-5 13.5-16.5t19.5-26q11-14.5 22-31 11.5-16.5 21.5-31.5 10-14.5 17-27 7.5-12 9.5-18-8-21-17-44.5t-19-46.5q-9.5-23-19.5-44-9.5-21-19-36.5-9.5-16-18.5-25.5-8.5-9.5-15.5-9.5-2 0-4.5 1.5-2.5 1-4.5 2-1.5 1-3.5-2.5t0-4.5q2-1.5 11.5-7.5 10-6 22-12.5 12-7 23-12.5 11.5-5.5 16.5-5.5t11.5 9q7 9 14 24.5 7.5 15 15.5 34.5t16 41q8 21 15.5 42.5 8 21.5 15 40 6.5-10 16.5-28.5 10.5-18.5 20-39.5t16-41.5q7-20.5 7-34.5 0-14.5-7-20.5-7-6.5-15.5-6.5-6.5 0-10.5.5-3.5 0-8 1-1 0-3-1-2-1.5-2-4t11-5.5q11-3 25.5-5.5t28.5-4q14-2 19.5-2 11.5 0 17 4.5t5.5 10.5q-3 12-13 31.5-9.5 19-23 42-13.5 22.5-29 47-15 24-29 45.5t-25.5 38.5q-11 17-16 25-10 15.5-19 32-9 17-16.5 33.5-7.5 17-13.5 32-5.5 15.5-8 28-1.5 7.5 2.5 9.5 4.5 2.5 11 1 7-1 15-4.5t13.5-8q2.5-2 3-1 1 1.5 1 4t-1 5q-1 3-2.5 4-.5 0-11.5 4.5t-26.5 9.5q-15.5 5.5-33 10-17 4.5-30 4.5-12.5 0-12.5-8v-1.5q.5-.5.5-1zM2173.217 202.61q-.5 4.5-1 8t-1 8q0 4.5-.5 11.5v17.5q0 18 1 29.5 1.5 11.5 4 18.5 2.5 6.5 6 9 4 2.5 9.5 2.5 3.5 0 7.5-1 1 0 1.5 3 1 2.5 0 3.5-3 2.5-12 7.5-8.5 4.5-19.5 9t-23 8q-11.5 3.5-19.5 3.5-7 0-11-2-4-1.5-4-4t.5-3q.5-.5 1.5-2.5 1-2.5 1.5-6 .5-4 1.5-9 1-7 2-17.5 1-11 2-23.5 1-13 1.5-26.5 1-14 1-27 0-5.5-.5-13.5 0-8.5-.5-21.5-.5-14.5-3.5-24.5-2.5-10.5-7-16.5-4-6.5-9.5-9.5-5-3-10-3h-5q-2.5 0-5 .5-2 0-2-4.5 0-1 .5-1.5 1-1 5-3.5 6.5-4.5 17.5-11t22.5-12q11.5-5.5 21.5-9.5 10.5-4 16-4 14.5 0 14.5 16.5 0 2.5-.5 9t-1 13.5q0 6.5-.5 12.5t-.5 8q10.5-10 22.5-20.5t26-19q14-9 29.5-14.5t32-5.5q30 0 49 17.5 19.5 17 19.5 54.5 0 10-1.5 23.5-1 13.5-2.5 28t-3 28.5q-1 14-1 25 0 40 26 40 5 0 11-1.5 6.5-2 12-4 6-2.5 10.5-4.5 4.5-2.5 6-4 .5-.5 1 1 1 1 1.5 3t0 3.5q0 1.5-.5 2-4 2.5-17.5 9.5-13 7-29.5 14.5-16 7-32 12.5-16 6-25.5 6-11.5 0-16-5.5-4-5.5-4-11.5 0-4 1-10 1.5-6 3.5-19.5 2-14.5 3.5-34 2-19.5 2-42 0-44-16.5-66.5-16-23-40.5-23-15.5 0-27.5 6t-20.5 16.5q-8.5 10-13.5 23.5-5 13-6.5 28zM2456.717 289.11q2.5.5 8 5.5 6 5 12 11.5t10.5 12.5q4.5 6 4.5 8 0 2.5-6 7.5t-14 10q-7.5 5.5-15 9.5-7 4-10 4-1.5 0-7.5-5-5.5-4.5-11.5-10.5t-11-11.5q-4.5-6-4.5-8 0-2.5 6.5-7.5 6.5-5.5 14-11 8-6 15-10 7.5-4.5 9-5zM2721.162 107.61q-1 3-6 9.5-4.5 6-11 13-6.5 6.5-14 13-7 6-12.5 9-3.5 1.5-4.5-1-.5-2.5-.5-5 0-4-4.5-10-4-6-12-11.5-7.5-6-18-10t-23-4q-21.5 0-35 23.5-13.5 23-13.5 61.5 0 23.5 7 42.5 7.5 18.5 20 31.5 13 12.5 31 19.5 18 6.5 39 6.5 28.5 0 45.5-7 17-7.5 28-17 .5 0 .5-.5.5-.5 1-.5 2.5 0 3.5 2 1 1.5 1 4 0 2-1 3-7.5 6-21 16-13 10-30 20-17 9.5-35.5 16.5t-36.5 7q-51.5 0-80.5-30-28.5-30-28.5-82 0-39.5 15-66.5 15.5-27 37.5-43 22.5-16.5 47.5-23.5t44-7q15.5 0 27.5 2.5 12.5 2 21 5.5 9 3 13.5 6.5 5 3.5 5 6z"
     style="fill:#c4692c;fill-opacity:1"
     id="path32" />
  <path
     fill="#47a0ee"
     d="M2933.795 294.61q-5.5 4.5-15 12t-22 15q-12.5 7.5-27.5 13-15 5-31.5 5-25 0-44.5-8.5-19.5-9-33-23.5-13-15-20-35-6.5-20-6.5-42.5 0-26.5 8-47t19.5-35.5q12-15.5 25.5-25.5 13.5-10.5 24.5-16.5 5-3 12.5-6.5 8-3.5 17-6.5 9.5-3 20-5 11-2.5 22.5-2.5 21.5 0 41.5 5.5 20.5 5.5 36 17.5 15.5 11.5 25 30t9.5 44.5q0 21-8 39.5-7.5 18.5-18 33t-21 25l-14.5 14.5zm-56.5 8q28.5 0 43.5-21.5 15.5-21.5 15.5-66 0-22.5-6.5-41.5-6-19.5-17.5-34-11-14.5-26-22.5-15-8.5-32.5-8.5-12.5 0-24 6.5-11 6.5-19.5 19-8.5 12-13.5 29.5t-5 39.5q0 23.5 7 42 7.5 18.5 19.5 31.5 12 12.5 27 19.5 15.5 6.5 32 6.5zM3489.404 291.11q1.5 0 2 2 .5 1.5.5 4t-1 3.5q-1 .5-2 1.5-3.5 2-17 8.5-13 6.5-29.5 13.5-16 6.5-32 11.5-15.5 5.5-23.5 5.5-7 0-13.5-3-6-3-5-9.5 1-4 2-12 1.5-8 2.5-19.5 1-14.5 2-33.5 1.5-19 1.5-42 0-27-3.5-44.5-3.5-18-10-28.5t-16-14.5q-9.5-4.5-22-4.5-11.5 0-19.5 4-8 3.5-14 8-11 8.5-17.5 22-6 13-7.5 34.5l-1 11q0 5.5-.5 12 0 6.5-.5 14.5v19q0 29.5 4.5 41 5 11.5 16.5 11.5h5q1-.5 4-1 1 1 2 2.5 1.5 2.5-.5 5.5-2.5 3-12 8-9.5 4.5-21 8.5t-22.5 7q-11 3-16.5 3-7 0-13-2-5.5-1.5-5.5-4 0-3 2-7 1.5-2.5 3-12t2.5-24.5q1.5-15 2.5-34.5 1-20 1-43 0-12-1.5-26.5-1-14.5-6-27-5-13-15-21.5-9.5-9-26.5-9-10 0-18 3-8 2.5-13.5 6.5-11 8.5-19 21-7.5 12.5-10 35.5-1 10.5-2 22-1 11-1 25.5 0 19 1 31.5t3.5 20q2.5 7 6 10 3.5 2.5 9 2.5t7.5-1q2.5-1 3.5 3t-.5 5q-2 2-10.5 6.5-8.5 4-19.5 8.5t-22.5 8q-11.5 3.5-19.5 3.5-8.5 0-13.5-2-4.5-2-4.5-4.5 0-.5 1-3 1-3 1.5-5 2-15.5 3.5-28.5 2-13.5 2.5-29 1-15.5 1.5-35.5t.5-48.5q0-27.5-9-40.5-8.5-13-18-13-4 0-7 1l-5 1q-3 .5-3-3v-3.5q.5-.5 10-7t22.5-14q13-7.5 27-13.5 14-6.5 23-6.5 6 0 10 3.5 4.5 3.5 4.5 13 0 4.5-.5 10 0 5.5-.5 11.5 0 6-.5 12-.5 5.5-.5 9.5 7-6.5 17.5-17 11-10.5 24.5-20t29-16.5q16-7 33.5-7 23 0 37.5 13.5t15.5 47q8-7.5 19.5-18t25.5-20q14.5-9.5 30.5-16t32.5-6.5q58 0 58 61.5 0 10-1 23t-2.5 27.5q-1.5 14-2.5 28t-1 25.5q0 52 27.5 52 4.5 0 10-1l11-3q5.5-2 10-3.5 4.5-2 6.5-3.5z"
     style="fill:#c4692c;fill-opacity:1"
     id="path34" />
</svg>
